<svg xmlns="http://www.w3.org/2000/svg" viewBox="0 0 500 500">
  <defs>
    <linearGradient id="gradient" x1="0%" y1="0%" x2="100%" y2="0%">
      <stop offset="0%" style="stop-color:#c084fc" />
      <stop offset="100%" style="stop-color:#ec4899" />
    </linearGradient>
  </defs>
  <path fill="url(#gradient)" d="M220.5 34.5c-93.5 0-169.5 76-169.5 169.5s76 169.5 169.5 169.5 169.5-76 169.5-169.5-76-169.5-169.5-169.5zm0 319c-82.7 0-150-67.3-150-150s67.3-150 150-150 150 67.3 150 150-67.3 150-150 150z"/>
  <path fill="url(#gradient)" d="M220.5 154.5c-27.6 0-50 22.4-50 50s22.4 50 50 50 50-22.4 50-50-22.4-50-50-50zm0 80c-16.5 0-30-13.5-30-30s13.5-30 30-30 30 13.5 30 30-13.5 30-30 30z"/>
  <path fill="url(#gradient)" d="M370.5 154.5c-27.6 0-50 22.4-50 50s22.4 50 50 50 50-22.4 50-50-22.4-50-50-50zm0 80c-16.5 0-30-13.5-30-30s13.5-30 30-30 30 13.5 30 30-13.5 30-30 30z"/>
  <path fill="url(#gradient)" d="M295.5 284.5c-7.8 0-15 3.4-20 8.8-5-5.4-12.2-8.8-20-8.8-15.2 0-27.5 12.3-27.5 27.5s12.3 27.5 27.5 27.5c7.8 0 15-3.4 20-8.8 5 5.4 12.2 8.8 20 8.8 15.2 0 27.5-12.3 27.5-27.5s-12.3-27.5-27.5-27.5z"/>
</svg> 