<svg height="1024" node-id="1" sillyvg="true" template-height="1024" template-width="1024" version="1.1" viewBox="0 0 1024 1024" width="1024" xmlns="http://www.w3.org/2000/svg" xmlns:xlink="http://www.w3.org/1999/xlink"><defs node-id="61"><linearGradient gradientUnits="objectBoundingBox" id="linearGradient-3" node-id="6" spreadMethod="pad" x1="1.1591349" x2="0.5" y1="-0.337185" y2="0.6488408"><stop offset="0" stop-color="#0d9488"/><stop offset="1" stop-color="#ffffff" stop-opacity="0"/></linearGradient><linearGradient gradientUnits="objectBoundingBox" id="linearGradient-4" node-id="9" spreadMethod="pad" x1="0.10503183" x2="0.70498055" y1="-0.20569195" y2="1"><stop offset="0" stop-color="#0d9488"/><stop offset="1" stop-color="#ffffff" stop-opacity="0"/></linearGradient><linearGradient gradientUnits="objectBoundingBox" id="linearGradient-5" node-id="12" spreadMethod="pad" x1="1.0019176" x2="0.38801584" y1="-0.97780454" y2="1.0473608"><stop offset="0" stop-color="#0d9488"/><stop offset="1" stop-color="#ffffff"/></linearGradient><linearGradient gradientUnits="objectBoundingBox" id="linearGradient-6" node-id="15" spreadMethod="pad" x1="0.5" x2="0.5" y1="-0.27901396" y2="1"><stop offset="0" stop-color="#0d9488"/><stop offset="1" stop-color="#ffffff" stop-opacity="0"/></linearGradient><linearGradient gradientUnits="objectBoundingBox" id="linearGradient-7" node-id="18" spreadMethod="pad" x1="0.5" x2="0.5" y1="-0.27901396" y2="1"><stop offset="0" stop-color="#0d9488"/><stop offset="1" stop-color="#ffffff" stop-opacity="0"/></linearGradient><linearGradient gradientUnits="objectBoundingBox" id="linearGradient-8" node-id="21" spreadMethod="pad" x1="0.5" x2="0.5" y1="-2.211569" y2="1"><stop offset="0" stop-color="#d2d2d2"/><stop offset="1" stop-color="#d2d2d2" stop-opacity="0"/></linearGradient><linearGradient gradientUnits="objectBoundingBox" id="linearGradient-9" node-id="24" spreadMethod="pad" x1="0.675653" x2="0.7303604" y1="0.48152748" y2="0.53733504"><stop offset="0" stop-color="#858585" stop-opacity="0"/><stop offset="1" stop-color="#616161" stop-opacity="0.5"/></linearGradient><mask height="660.895" id="mask-2" maskUnits="userSpaceOnUse" node-id="29" width="1228.8" x="615.2538" y="1652.407"><path d="M 739.80 1469.50 L 1719.50 1469.50 L 1722.40 1469.70 L 1725.30 1470.20 L 1728.00 1471.20 L 1733.00 1474.00 L 1735.20 1476.00 L 1737.10 1478.20 L 1740.00 1483.10 L 1740.90 1485.90 L 1741.50 1488.70 L 1741.70 1491.60 L 1741.70 2471.30 L 1741.50 2474.30 L 1740.00 2479.80 L 1737.10 2484.80 L 1735.20 2487.00 L 1733.00 2488.90 L 1730.60 2490.50 L 1728.00 2491.80 L 1725.30 2492.70 L 1722.40 2493.30 L 739.80 2493.50 L 736.90 2493.30 L 734.00 2492.70 L 731.30 2491.80 L 726.30 2488.90 L 724.10 2487.00 L 722.20 2484.80 L 719.30 2479.80 L 717.80 2474.30 L 717.70 2471.30 L 717.70 1491.60 L 717.90 1488.50 L 718.50 1485.70 L 719.40 1483.00 L 720.70 1480.40 L 722.90 1477.30 L 725.50 1474.70 L 728.60 1472.50 L 731.20 1471.20 L 736.70 1469.70 L 739.80 1469.50 Z" fill="#ffffff" fill-rule="evenodd" node-id="108" stroke="none" target-height="1024" target-width="1023.99994" target-x="717.7" target-y="1469.5"/></mask></defs><g node-id="110"><g node-id="112"><g node-id="113"><g node-id="114"><g node-id="118"><path d="M 755.00 736.10 L 751.90 727.40 L 749.80 717.60 L 749.00 707.50 L 749.40 697.40 L 750.60 690.70 L 752.40 684.40 L 754.90 678.60 L 758.30 673.20 L 762.40 668.50 L 767.40 664.50 L 769.50 666.10 L 770.90 668.10 L 771.60 670.50 L 771.60 673.10 L 769.60 689.30 L 769.40 701.80 L 770.10 707.30 L 771.50 710.40 L 772.80 711.50 L 774.60 711.40 L 777.40 709.80 L 781.60 705.30 L 788.60 694.90 L 814.40 649.50 L 821.60 638.70 L 829.60 628.30 L 836.30 621.50 L 842.80 616.40 L 849.00 612.90 L 855.70 610.50 L 861.70 609.50 L 867.20 609.70 L 872.40 611.10 L 876.80 613.60 L 880.30 617.30 L 882.90 621.80 L 884.40 627.30 L 884.70 634.40 L 883.70 641.30 L 881.10 649.60 L 876.50 659.50 L 863.00 681.20 L 858.60 689.00 L 854.80 696.70 L 851.90 704.30 L 850.80 710.10 L 851.00 713.60 L 852.30 715.90 L 854.70 717.40 L 857.80 717.70 L 860.90 717.10 L 867.60 714.60 L 881.30 708.40 L 887.90 706.30 L 892.40 705.60 L 896.70 705.90 L 901.10 707.20 L 904.50 709.40 L 907.30 712.10 L 909.40 715.40 L 911.50 721.00 L 912.60 727.40 L 912.60 733.90 L 911.80 740.20 L 909.10 749.40 L 904.70 758.70 L 898.80 767.40 L 891.40 775.20 L 885.80 779.60 L 879.80 783.30 L 873.10 786.10 L 866.20 788.00 L 858.80 788.80 L 850.80 788.40 L 838.10 786.10 L 823.80 782.40 L 809.50 777.50 L 795.40 771.50 L 786.30 766.70 L 778.10 761.50 L 770.80 756.00 L 764.10 749.70 L 758.90 743.20 L 755.10 736.40 Z" fill="url(#linearGradient-3)" fill-rule="nonzero" group-id="1,3,4,5,9" id="路径" node-id="36" stroke="none" target-height="179.29999" target-width="163.59998" target-x="749" target-y="609.5"/><path d="M 202.50 678.50 L 194.30 674.10 L 186.20 668.20 L 178.80 661.30 L 172.30 653.50 L 167.10 644.80 L 163.80 635.80 L 162.60 629.60 L 162.60 623.40 L 163.60 617.10 L 166.20 616.90 L 168.60 617.40 L 170.70 618.60 L 172.40 620.60 L 181.90 633.90 L 190.10 643.30 L 194.30 646.90 L 197.40 648.30 L 199.10 648.20 L 200.40 646.90 L 201.40 643.90 L 201.50 637.70 L 199.70 625.30 L 188.30 574.50 L 186.30 561.60 L 185.40 548.50 L 185.80 538.90 L 187.20 530.80 L 189.50 524.10 L 192.80 517.80 L 196.60 513.00 L 200.80 509.50 L 205.70 507.10 L 210.60 506.10 L 215.70 506.30 L 220.50 507.90 L 225.40 511.10 L 230.30 516.10 L 234.20 521.90 L 237.90 529.80 L 241.10 540.20 L 245.60 565.40 L 247.60 574.10 L 250.00 582.40 L 252.90 589.90 L 256.00 595.00 L 258.50 597.40 L 261.00 598.20 L 263.80 597.80 L 266.30 595.90 L 268.10 593.30 L 271.50 586.90 L 277.50 573.20 L 280.90 567.20 L 283.80 563.80 L 287.20 561.20 L 291.30 559.30 L 295.40 558.50 L 299.20 558.70 L 303.00 559.70 L 308.40 562.40 L 313.40 566.50 L 317.80 571.30 L 321.40 576.50 L 325.20 583.60 L 329.30 592.80 L 332.90 602.80 L 336.00 613.60 L 338.20 624.80 L 339.10 635.70 L 338.90 642.90 L 338.00 649.50 L 336.30 655.60 L 333.60 661.30 L 330.00 666.20 L 325.20 670.30 L 319.60 673.60 L 312.90 676.70 L 305.00 679.40 L 292.60 682.60 L 278.90 684.80 L 264.70 686.20 L 250.60 686.60 L 236.60 686.00 L 223.90 684.50 L 212.00 682.00 L 202.70 678.70 Z" fill="url(#linearGradient-4)" fill-rule="nonzero" group-id="1,3,4,5,9" id="路径" node-id="37" stroke="none" target-height="180.49997" target-width="176.5" target-x="162.6" target-y="506.1"/><path d="M 811.10 522.50 L 807.30 527.90 L 804.10 534.00 L 801.90 540.40 L 800.80 546.90 L 800.90 553.60 L 802.60 560.20 L 804.80 564.10 L 813.10 572.50 L 814.80 576.10 L 815.40 581.60 L 814.20 587.70 L 812.10 593.50 L 809.20 599.00 L 803.00 608.80 L 796.00 618.00 L 788.20 626.50 L 792.70 631.10 L 795.70 636.50 L 797.30 642.60 L 797.30 649.00 L 795.80 655.20 L 793.30 661.10 L 790.00 666.50 L 785.80 671.30 L 782.70 674.20 L 778.90 676.30 L 775.00 676.70 L 771.10 676.30 L 758.50 673.50 L 746.30 669.60 L 734.50 664.60 L 729.10 661.70 L 724.20 658.30 L 720.10 654.00 L 717.40 648.90 L 716.60 644.70 L 716.80 641.80 L 717.80 639.70 L 720.40 637.10 L 728.90 631.90 L 731.70 628.80 L 733.80 624.10 L 735.10 619.00 L 736.70 608.60 L 738.50 590.80 L 740.00 585.10 L 741.80 581.90 L 744.30 579.40 L 747.90 577.60 L 762.30 574.90 L 766.90 572.80 L 770.70 569.80 L 773.80 566.10 L 777.50 559.70 L 785.20 542.70 L 787.30 538.90 L 789.80 535.60 L 792.90 532.90 L 796.90 530.50 L 808.80 524.40 L 811.10 522.50 Z M 781.60 579.70 L 777.80 584.50 L 768.70 597.30 L 763.50 605.90 L 758.00 616.00 L 753.20 626.80 L 749.30 638.40 L 747.40 646.30 L 746.30 654.20 L 746.00 662.10 L 757.90 662.10 L 758.90 654.10 L 762.50 633.90 L 765.50 621.30 L 769.70 607.20 L 775.00 593.20 L 781.60 579.70 Z" fill="url(#linearGradient-5)" fill-rule="nonzero" group-id="1,3,4,5,9" id="形状结合" node-id="38" stroke="none" target-height="154.20001" target-width="98.80005" target-x="716.6" target-y="522.5"/><path d="M 287.80 298.80 L 287.10 292.30 L 285.00 286.40 L 281.60 281.20 L 277.10 276.90 L 271.70 273.80 L 265.50 271.90 L 259.00 271.60 L 252.90 272.70 L 247.20 275.20 L 242.20 279.00 L 238.30 283.80 L 235.40 289.60 L 229.40 290.40 L 223.90 292.60 L 219.20 296.10 L 215.50 300.90 L 213.20 306.60 L 212.50 312.40 L 213.40 318.30 L 215.90 323.80 L 219.70 328.50 L 224.50 331.90 L 230.10 333.90 L 236.10 334.50 L 285.60 334.50 L 290.20 333.80 L 294.20 332.10 L 297.70 329.50 L 300.50 326.10 L 302.30 322.20 L 303.30 317.70 L 302.90 313.00 L 301.60 308.90 L 299.20 305.20 L 296.10 302.10 L 292.30 300.00 Z" fill="url(#linearGradient-6)" fill-rule="nonzero" group-id="1,3,4,5,9" id="路径" node-id="39" stroke="none" target-height="62.899994" target-width="90.79999" target-x="212.5" target-y="271.6"/><path d="M 492.10 271.70 L 491.70 266.10 L 490.50 261.10 L 488.50 256.30 L 484.20 249.90 L 478.60 244.70 L 474.30 241.90 L 469.50 239.90 L 464.20 238.50 L 458.80 238.00 L 453.60 238.40 L 448.60 239.50 L 441.60 242.60 L 435.40 247.20 L 431.90 251.00 L 429.10 255.40 L 426.90 260.30 L 421.80 260.90 L 417.10 262.20 L 412.80 264.40 L 408.90 267.20 L 405.60 270.60 L 402.90 274.60 L 400.80 279.00 L 399.70 283.70 L 399.20 288.80 L 399.80 293.90 L 401.10 298.60 L 403.30 302.90 L 406.20 306.80 L 409.60 310.10 L 413.50 312.80 L 417.90 314.80 L 422.60 316.00 L 427.80 316.40 L 489.20 316.40 L 494.90 315.70 L 500.10 313.60 L 504.50 310.30 L 508.00 306.10 L 510.50 301.10 L 511.60 295.40 L 511.20 289.70 L 509.40 284.40 L 506.40 279.80 L 502.40 276.00 L 497.60 273.30 L 492.00 271.90 Z" fill="url(#linearGradient-7)" fill-rule="nonzero" group-id="1,3,4,5,9" id="路径" node-id="40" stroke="none" target-height="78.399994" target-width="112.399994" target-x="399.2" target-y="238"/></g><path d="M 1024.00 788.40 L 999.60 772.40 L 973.80 757.20 L 946.70 742.60 L 918.00 728.80 L 889.20 716.20 L 859.10 704.50 L 827.80 693.70 L 795.30 683.70 L 762.70 675.00 L 729.10 667.40 L 694.50 660.70 L 658.90 655.20 L 623.30 650.90 L 587.00 647.80 L 549.90 645.90 L 512.00 645.20 L 474.10 645.90 L 437.00 647.80 L 400.60 650.90 L 365.10 655.20 L 329.50 660.70 L 294.90 667.40 L 261.30 675.00 L 228.70 683.70 L 196.20 693.70 L 164.90 704.50 L 134.80 716.20 L 105.90 728.80 L 77.30 742.60 L 50.20 757.20 L 24.40 772.40 L 0.00 788.40 Z" fill="url(#linearGradient-8)" fill-rule="nonzero" group-id="1,3,4,5" id="路径" node-id="41" stroke="none" target-height="143.20001" target-width="1024" target-x="0" target-y="645.2"/></g><path d="M 168.60 627.20 L 314.60 627.20 L 461.50 707.30 L 317.20 703.60 Z" fill="url(#linearGradient-9)" fill-rule="nonzero" group-id="1,3,4" id="矩形" node-id="42" stroke="none" target-height="80.099976" target-width="292.9" target-x="168.6" target-y="627.2"/><path d="M 481.20 446.30 L 479.70 537.50 L 688.60 474.30 Z" fill="#5eead4" fill-rule="nonzero" group-id="1,3,4" id="路径" node-id="43" stroke="none" target-height="91.20001" target-width="208.89996" target-x="479.7" target-y="446.3"/><path d="M 314.80 483.00 L 481.20 446.60 L 481.20 502.00 Z" fill="#2dd4bf" fill-rule="nonzero" group-id="1,3,4" id="路径" node-id="44" stroke="none" target-height="55.399994" target-width="166.40002" target-x="314.8" target-y="446.6"/><path d="M 314.80 483.00 L 511.10 502.40 L 511.10 750.60 L 314.80 703.10 Z" fill="#0d9488" fill-rule="nonzero" group-id="1,3,4" id="路径" node-id="45" stroke="none" target-height="267.59998" target-width="196.30002" target-x="314.8" target-y="483"/><path d="M 314.80 483.00 L 511.30 501.60 L 489.90 621.40 L 314.80 585.00 Z" fill="#0d9488" fill-rule="nonzero" group-id="1,3,4" id="矩形" node-id="46" stroke="none" target-height="138.40002" target-width="196.5" target-x="314.8" target-y="483"/><g node-id="115"><path d="M 511.10 502.40 L 688.60 474.30 L 688.60 696.60 L 511.10 750.60 Z" fill="#2dd4bf" fill-opacity="0.99" fill-rule="nonzero" group-id="1,3,4,6" id="路径" node-id="47" stroke="none" target-height="276.3" target-width="177.49997" target-x="511.1" target-y="474.3"/></g><path d="M 511.30 503.00 L 671.90 477.40 L 688.60 582.30 L 535.00 621.40 Z" fill="#0d9488" fill-rule="nonzero" group-id="1,3,4" id="矩形" node-id="48" stroke="none" target-height="144.00003" target-width="177.29999" target-x="511.3" target-y="477.4"/><path d="M 314.80 483.00 L 267.60 562.80 L 465.80 600.60 L 511.10 502.40 Z" fill="#2dd4bf" fill-rule="nonzero" group-id="1,3,4" id="路径" node-id="49" stroke="none" target-height="117.599976" target-width="243.5" target-x="267.6" target-y="483"/><g node-id="116"><path d="M 511.10 502.40 L 566.90 600.60 L 745.60 555.80 L 688.60 474.30 Z" fill="#2dd4bf" fill-opacity="0.99" fill-rule="nonzero" group-id="1,3,4,7" id="路径" node-id="50" stroke="none" target-height="126.29999" target-width="234.49997" target-x="511.1" target-y="474.3"/></g><path d="M 583.10 389.90 L 570.60 398.30 L 549.30 413.80 L 539.50 421.80 L 531.40 429.00 L 524.70 435.70 L 519.90 441.20 L 516.10 446.20 L 513.30 450.70 L 511.30 454.80 L 510.10 458.50 L 509.50 461.80 L 509.50 464.90 L 510.00 467.70 L 511.00 470.50 L 513.10 474.10 L 515.20 477.10 L 519.30 481.40 L 522.50 483.50 L 525.50 484.90 L 528.40 485.60 L 531.50 485.80 L 534.40 485.50 L 537.10 484.70 L 539.70 483.60 L 542.00 482.20 L 545.70 478.50 L 547.90 474.50 L 548.50 470.10 L 547.90 464.90 L 547.20 462.40 L 544.70 457.70 L 543.00 455.80 L 541.10 454.10 L 538.90 452.80 L 536.40 452.00 L 533.50 451.80 L 531.40 451.90 L 526.40 453.40 L 518.80 457.80 L 509.40 464.70 L 504.80 468.60 L 496.30 476.90 L 492.40 481.40 L 485.80 490.70 L 483.20 495.50 L 481.20 500.30 L 479.70 505.10" fill="none" group-id="1,3,4" id="路径-19" node-id="51" stroke="#2dd4bf" stroke-dasharray="11.054778 8.291083" stroke-linecap="butt" stroke-width="5.527389" target-height="115.20001" target-width="103.39996" target-x="479.7" target-y="389.9"/><g node-id="117"><path d="M 718.20 279.40 L 555.10 310.30 L 596.50 337.80 Z" fill="#2dd4bf" fill-rule="nonzero" group-id="1,3,4,8" id="路径-16备份" node-id="53" stroke="none" target-height="58.399994" target-width="163.10004" target-x="555.1" target-y="279.4"/><path d="M 718.20 279.40 L 596.50 337.80 L 596.50 384.30 Z" fill="#0d9488" fill-rule="nonzero" group-id="1,3,4,8" id="路径-16备份-2" node-id="54" stroke="none" target-height="104.899994" target-width="121.70001" target-x="596.5" target-y="279.4"/><path d="M 718.20 279.40 L 596.50 337.80 L 620.60 363.60 Z" fill="#0d9488" fill-rule="nonzero" group-id="1,3,4,8" id="路径-16备份-2" node-id="55" stroke="none" target-height="84.20001" target-width="121.70001" target-x="596.5" target-y="279.4"/><path d="M 718.20 279.40 L 614.00 349.50 L 664.00 381.60 Z" fill="#2dd4bf" fill-rule="nonzero" group-id="1,3,4,8" id="路径-16备份" node-id="56" stroke="none" target-height="102.20001" target-width="104.20001" target-x="614" target-y="279.4"/><path d="M 596.50 337.80 L 555.60 311.50" fill="none" group-id="1,3,4,8" id="路径-16" node-id="57" stroke="#0d9488" stroke-linecap="round" stroke-width="2.7636945" target-height="26.299988" target-width="40.900024" target-x="555.6" target-y="311.5"/><path d="M 614.80 350.50 L 662.70 381.20" fill="none" group-id="1,3,4,8" id="路径-17" node-id="58" stroke="#0d9488" stroke-linecap="round" stroke-width="2.7636945" target-height="30.700012" target-width="47.900024" target-x="614.8" target-y="350.5"/><path d="M 596.50 337.80 L 596.50 382.90" fill="none" group-id="1,3,4,8" id="路径-18" node-id="59" stroke="#0d9488" stroke-linecap="round" stroke-width="2.7636945" target-height="45.100006" target-width="0" target-x="596.5" target-y="337.8"/></g></g></g></g></svg>